<svg width="17" height="6" viewBox="0 0 17 6" fill="none" xmlns="http://www.w3.org/2000/svg">
<path d="M1 0.899902C1.13261 0.899902 1.25979 0.952581 1.35355 1.04635C1.44732 1.14012 1.5 1.26729 1.5 1.3999V3.8999C1.5 4.16512 1.60536 4.41947 1.79289 4.60701C1.98043 4.79455 2.23478 4.8999 2.5 4.8999H14.5C14.7652 4.8999 15.0196 4.79455 15.2071 4.60701C15.3946 4.41947 15.5 4.16512 15.5 3.8999V1.3999C15.5 1.26729 15.5527 1.14012 15.6464 1.04635C15.7402 0.952581 15.8674 0.899902 16 0.899902C16.1326 0.899902 16.2598 0.952581 16.3536 1.04635C16.4473 1.14012 16.5 1.26729 16.5 1.3999V3.8999C16.5 4.43034 16.2893 4.93904 15.9142 5.31412C15.5391 5.68919 15.0304 5.8999 14.5 5.8999H2.5C1.96957 5.8999 1.46086 5.68919 1.08579 5.31412C0.710714 4.93904 0.5 4.43034 0.5 3.8999V1.3999C0.5 1.26729 0.552678 1.14012 0.646447 1.04635C0.740215 0.952581 0.867392 0.899902 1 0.899902Z" fill="#737373"/>
</svg>
